<svg width="177" height="50" viewBox="0 0 177 50" fill="none" xmlns="http://www.w3.org/2000/svg">
<path d="M17.32 11.96C17.64 11.96 17.9733 12.04 18.32 12.2C18.6667 12.36 18.9333 12.5867 19.12 12.88L29.28 28.36L27.56 28.28L37.92 12.88C38.3467 12.2667 38.8933 11.96 39.56 11.96C40.0933 11.96 40.56 12.16 40.96 12.56C41.3867 12.9333 41.6 13.4133 41.6 14V37.96C41.6 38.5467 41.4133 39.04 41.04 39.44C40.6667 39.8133 40.1733 40 39.56 40C38.92 40 38.4 39.8133 38 39.44C37.6267 39.04 37.44 38.5467 37.44 37.96V17.68L38.72 17.96L29.92 31.36C29.7333 31.6 29.4933 31.8133 29.2 32C28.9067 32.16 28.6 32.2267 28.28 32.2C27.9867 32.2267 27.68 32.16 27.36 32C27.0667 31.8133 26.8267 31.6 26.64 31.36L18.16 18.16L19.12 16.56V37.96C19.12 38.5467 18.9333 39.04 18.56 39.44C18.2133 39.8133 17.7467 40 17.16 40C16.6 40 16.1333 39.8133 15.76 39.44C15.4133 39.04 15.24 38.5467 15.24 37.96V14C15.24 13.44 15.44 12.96 15.84 12.56C16.2667 12.16 16.76 11.96 17.32 11.96ZM57.4906 40.4C55.2773 40.4 53.3573 39.9467 51.7306 39.04C50.104 38.1067 48.8373 36.84 47.9306 35.24C47.0506 33.6133 46.6106 31.76 46.6106 29.68C46.6106 27.3333 47.0773 25.3333 48.0106 23.68C48.9706 22 50.2106 20.72 51.7306 19.84C53.2506 18.9333 54.864 18.48 56.5706 18.48C57.8773 18.48 59.1173 18.7467 60.2906 19.28C61.464 19.7867 62.504 20.5067 63.4106 21.44C64.344 22.3467 65.0773 23.4267 65.6106 24.68C66.144 25.9067 66.424 27.2533 66.4506 28.72C66.424 29.2533 66.2106 29.6933 65.8106 30.04C65.4106 30.3867 64.944 30.56 64.4106 30.56H48.8506L47.8906 27.16H62.9306L62.1706 27.88V26.88C62.1173 25.9467 61.8106 25.1333 61.2506 24.44C60.6906 23.72 59.9973 23.1733 59.1706 22.8C58.344 22.4 57.4773 22.2 56.5706 22.2C55.7706 22.2 54.9973 22.3333 54.2506 22.6C53.5306 22.84 52.8773 23.24 52.2906 23.8C51.7306 24.36 51.2773 25.1067 50.9306 26.04C50.6106 26.9467 50.4506 28.08 50.4506 29.44C50.4506 30.9067 50.7573 32.1867 51.3706 33.28C51.984 34.3733 52.8106 35.2267 53.8506 35.84C54.8906 36.4267 56.0373 36.72 57.2906 36.72C58.2773 36.72 59.0906 36.6267 59.7306 36.44C60.3706 36.2267 60.904 35.9733 61.3306 35.68C61.7573 35.3867 62.1306 35.1067 62.4506 34.84C62.8506 34.6 63.2506 34.48 63.6506 34.48C64.1306 34.48 64.5306 34.6533 64.8506 35C65.1706 35.32 65.3306 35.7067 65.3306 36.16C65.3306 36.7467 65.0373 37.28 64.4506 37.76C63.7306 38.4533 62.7306 39.0667 61.4506 39.6C60.1973 40.1333 58.8773 40.4 57.4906 40.4ZM81.5719 18.6C83.4119 18.6 84.8385 19 85.8519 19.8C86.8652 20.5733 87.5719 21.6267 87.9719 22.96C88.3985 24.2933 88.6119 25.76 88.6119 27.36V37.96C88.6119 38.5467 88.4119 39.04 88.0119 39.44C87.6385 39.8133 87.1719 40 86.6119 40C86.0252 40 85.5452 39.8133 85.1719 39.44C84.7985 39.04 84.6119 38.5467 84.6119 37.96V27.36C84.6119 26.4267 84.4785 25.5733 84.2119 24.8C83.9719 24.0267 83.5319 23.4133 82.8919 22.96C82.2785 22.5067 81.4119 22.28 80.2919 22.28C79.2519 22.28 78.3185 22.5067 77.4919 22.96C76.6919 23.4133 76.0652 24.0267 75.6119 24.8C75.1852 25.5733 74.9719 26.4267 74.9719 27.36V37.96C74.9719 38.5467 74.7719 39.04 74.3719 39.44C73.9985 39.8133 73.5319 40 72.9719 40C72.3852 40 71.9052 39.8133 71.5319 39.44C71.1585 39.04 70.9719 38.5467 70.9719 37.96V12.44C70.9719 11.8533 71.1585 11.3733 71.5319 11C71.9052 10.6 72.3852 10.4 72.9719 10.4C73.5319 10.4 73.9985 10.6 74.3719 11C74.7719 11.3733 74.9719 11.8533 74.9719 12.44V23.36L74.2519 23.76C74.4385 23.1733 74.7452 22.5733 75.1719 21.96C75.6252 21.3467 76.1719 20.7867 76.8119 20.28C77.4785 19.7733 78.2119 19.3733 79.0119 19.08C79.8119 18.76 80.6652 18.6 81.5719 18.6ZM104.735 18.6C106.708 18.6 108.228 19.0933 109.295 20.08C110.362 21.04 111.068 22.3467 111.415 24L110.775 23.8L111.055 23.16C111.402 22.4667 111.922 21.7733 112.615 21.08C113.335 20.36 114.188 19.7733 115.175 19.32C116.162 18.84 117.215 18.6 118.335 18.6C120.175 18.6 121.602 19 122.615 19.8C123.628 20.5733 124.335 21.6267 124.735 22.96C125.135 24.2667 125.335 25.7333 125.335 27.36V37.96C125.335 38.5467 125.148 39.04 124.775 39.44C124.402 39.8133 123.922 40 123.335 40C122.775 40 122.295 39.8133 121.895 39.44C121.522 39.04 121.335 38.5467 121.335 37.96V27.4C121.335 26.4667 121.202 25.6133 120.935 24.84C120.695 24.0667 120.255 23.4533 119.615 23C119.002 22.52 118.148 22.28 117.055 22.28C116.015 22.28 115.082 22.52 114.255 23C113.455 23.4533 112.828 24.0667 112.375 24.84C111.922 25.6133 111.695 26.4667 111.695 27.4V37.96C111.695 38.5467 111.508 39.04 111.135 39.44C110.762 39.8133 110.282 40 109.695 40C109.108 40 108.628 39.8133 108.255 39.44C107.882 39.04 107.695 38.5467 107.695 37.96V27.36C107.695 26.4267 107.562 25.5733 107.295 24.8C107.055 24.0267 106.628 23.4133 106.015 22.96C105.402 22.5067 104.548 22.28 103.455 22.28C102.415 22.28 101.495 22.5067 100.695 22.96C99.895 23.4133 99.2683 24.0267 98.815 24.8C98.3883 25.5733 98.175 26.4267 98.175 27.36V37.96C98.175 38.5467 97.975 39.04 97.575 39.44C97.2017 39.8133 96.735 40 96.175 40C95.5883 40 95.1083 39.8133 94.735 39.44C94.3617 39.04 94.175 38.5467 94.175 37.96V21C94.175 20.4133 94.3617 19.9333 94.735 19.56C95.1083 19.16 95.5883 18.96 96.175 18.96C96.735 18.96 97.2017 19.16 97.575 19.56C97.975 19.9333 98.175 20.4133 98.175 21V23.36L97.415 23.8C97.6017 23.2133 97.9083 22.6133 98.335 22C98.7617 21.3867 99.295 20.8267 99.935 20.32C100.602 19.8133 101.335 19.4 102.135 19.08C102.935 18.76 103.802 18.6 104.735 18.6ZM151.093 29.48C151.093 31.6133 150.626 33.5067 149.693 35.16C148.759 36.7867 147.493 38.0667 145.893 39C144.293 39.9333 142.493 40.4 140.493 40.4C138.493 40.4 136.693 39.9333 135.093 39C133.493 38.0667 132.213 36.7867 131.253 35.16C130.319 33.5067 129.853 31.6133 129.853 29.48C129.853 27.32 130.319 25.4267 131.253 23.8C132.213 22.1467 133.493 20.8533 135.093 19.92C136.693 18.96 138.493 18.48 140.493 18.48C142.493 18.48 144.293 18.96 145.893 19.92C147.493 20.8533 148.759 22.1467 149.693 23.8C150.626 25.4267 151.093 27.32 151.093 29.48ZM147.093 29.48C147.093 28.0133 146.799 26.7467 146.213 25.68C145.626 24.5867 144.826 23.7333 143.813 23.12C142.826 22.48 141.719 22.16 140.493 22.16C139.266 22.16 138.146 22.48 137.133 23.12C136.119 23.7333 135.319 24.5867 134.733 25.68C134.146 26.7467 133.853 28.0133 133.853 29.48C133.853 30.8933 134.146 32.1467 134.733 33.24C135.319 34.3333 136.119 35.1867 137.133 35.8C138.146 36.4133 139.266 36.72 140.493 36.72C141.719 36.72 142.826 36.4133 143.813 35.8C144.826 35.1867 145.626 34.3333 146.213 33.24C146.799 32.1467 147.093 30.8933 147.093 29.48ZM166.46 18.48C168.354 18.48 169.82 18.88 170.86 19.68C171.9 20.4533 172.62 21.5067 173.02 22.84C173.447 24.1467 173.66 25.6133 173.66 27.24V37.96C173.66 38.5467 173.46 39.04 173.06 39.44C172.687 39.8133 172.22 40 171.66 40C171.074 40 170.594 39.8133 170.22 39.44C169.847 39.04 169.66 38.5467 169.66 37.96V27.28C169.66 26.32 169.527 25.4667 169.26 24.72C168.994 23.9467 168.527 23.3333 167.86 22.88C167.22 22.4 166.314 22.16 165.14 22.16C164.047 22.16 163.087 22.4 162.26 22.88C161.434 23.3333 160.78 23.9467 160.3 24.72C159.847 25.4667 159.62 26.32 159.62 27.28V37.96C159.62 38.5467 159.42 39.04 159.02 39.44C158.647 39.8133 158.18 40 157.62 40C157.034 40 156.554 39.8133 156.18 39.44C155.807 39.04 155.62 38.5467 155.62 37.96V21C155.62 20.4133 155.807 19.9333 156.18 19.56C156.554 19.16 157.034 18.96 157.62 18.96C158.18 18.96 158.647 19.16 159.02 19.56C159.42 19.9333 159.62 20.4133 159.62 21V23.24L158.9 23.64C159.087 23.0533 159.407 22.4667 159.86 21.88C160.34 21.2667 160.914 20.7067 161.58 20.2C162.247 19.6667 162.994 19.2533 163.82 18.96C164.647 18.64 165.527 18.48 166.46 18.48Z" fill="#212121"/>
<path d="M4.85511 40V18.1818H9.10227V40H4.85511ZM7 14.8153C6.26136 14.8153 5.62689 14.5691 5.09659 14.0767C4.57576 13.5748 4.31534 12.9782 4.31534 12.2869C4.31534 11.5862 4.57576 10.9896 5.09659 10.4972C5.62689 9.99526 6.26136 9.74432 7 9.74432C7.73864 9.74432 8.36837 9.99526 8.8892 10.4972C9.41951 10.9896 9.68466 11.5862 9.68466 12.2869C9.68466 12.9782 9.41951 13.5748 8.8892 14.0767C8.36837 14.5691 7.73864 14.8153 7 14.8153Z" fill="#DC1470"/>
</svg>
