<svg width="436" height="355" viewBox="0 0 436 355" fill="none" xmlns="http://www.w3.org/2000/svg">
<path d="M29.9574 65.1963C-9.41119 111.782 -6.00434 191.584 42.4495 242.626" stroke="#909090" stroke-width="5" stroke-linecap="round" stroke-linejoin="round" stroke-dasharray="20 20"/>
<path d="M114.248 219.94C122.47 232.485 128.055 238.265 139.496 246.676" stroke="#909090" stroke-width="5" stroke-linecap="round" stroke-linejoin="round" stroke-dasharray="20 20"/>
<path d="M375.404 177.811C374.136 199.244 373.099 201.286 359.624 216.7" stroke="#909090" stroke-width="5" stroke-linecap="round" stroke-linejoin="round" stroke-dasharray="50 50"/>
<path d="M187.624 91.9319L192.358 96.793M197.092 101.654L192.358 96.793M192.358 96.793L197.092 91.9319L187.624 101.654" stroke="#909090" stroke-width="3" stroke-linecap="round" stroke-linejoin="round"/>
<path d="M327.893 66.6201H182.743C171.389 75.9115 164.202 80.27 150.444 87.069C152.387 78.9714 154.352 74.5166 158.419 66.6201H147.254C134.454 67.3183 130.125 64.5726 130.904 50.2611V19.1788C131.108 5.60372 134.744 1.90591 147.254 2.00181H327.893C341.847 2.18077 343.196 7.75278 343.844 19.1788V50.2611C343.488 61.4805 340.704 65.6442 327.893 66.6201Z" fill="white" stroke="#212121" stroke-width="3" stroke-linecap="round" stroke-linejoin="round"/>
<path d="M152.908 39.2701C164.901 20.733 172.376 25.5804 185.959 39.2701C199.679 25.4163 207.753 23.541 223.39 39.2701C238.27 22.5572 245.082 26.1598 256.44 39.2701C270.083 23.1301 278.325 23.8114 293.871 39.2701C306.137 24.4714 312.581 22.1716 322.541 39.2701" stroke="#212121" stroke-width="3" stroke-linecap="round" stroke-linejoin="round"/>
<path d="M65.5755 218.808H143.597C156.125 226.132 162.565 230.881 174.025 239.385C172.611 231.417 171.488 226.933 167.003 218.808H181.437C191.011 218.562 194.19 215.969 193.92 204.687V131.257C194.004 121.59 192.569 117.316 181.437 116.329H65.5755C55.3434 115.689 51.7748 118.193 51.9218 131.257V204.687C52.077 216.585 55.7503 218.837 65.5755 218.808Z" fill="white" stroke="#212121" stroke-width="5" stroke-linecap="round" stroke-linejoin="round"/>
<path d="M429.045 138.517V67.2215C428.852 55.5178 427.963 49.685 416.005 48.9924H235.815C219.509 49.0248 215.638 53.3189 216.057 67.2215V138.517C216.144 150.394 221.603 152.555 235.815 152.696H374.939C375.666 152.696 376.148 153.45 375.853 154.114C372.215 162.294 370.751 167.082 369.978 173.476C369.881 174.278 370.74 174.836 371.441 174.435C382.264 168.24 388.832 163.245 399.908 152.966C400.093 152.794 400.339 152.696 400.592 152.696H416.005C426.434 152.078 429.244 148.923 429.045 138.517Z" fill="white" stroke="#212121" stroke-width="5" stroke-linecap="round" stroke-linejoin="round"/>
<path d="M237.33 97.6034C249.507 81.8039 256.849 85.0567 270.391 97.6034C284.172 81.0527 292.388 81.7507 307.781 97.6034C321.132 82.0178 328.547 81.3763 341.629 97.6034C353.116 84.1957 360.157 81.3218 375.477 97.6034C387.051 85.3487 393.716 81.4425 406.963 97.6034" stroke="#212121" stroke-width="3" stroke-linecap="round" stroke-linejoin="round"/>
<path d="M17.5963 352H433" stroke="#212121" stroke-width="5" stroke-linecap="round" stroke-linejoin="round"/>
<path d="M63.7524 334.176L32.5873 262.88C28.805 252.39 30.8502 249.737 40.8717 249.917H168.688C173.558 249.663 176.13 252.958 180.523 262.88L211.294 331.34C211.608 332.236 211.833 333.042 211.953 333.771C212.594 337.658 210.284 339.352 203.009 340.657H70.8533C67.9026 339.618 66.3294 338.366 63.7524 334.176Z" fill="white"/>
<path d="M70.8533 340.657C67.9026 339.618 66.3294 338.366 63.7524 334.176L32.5873 262.88C28.805 252.39 30.8502 249.737 40.8717 249.917H168.688C173.558 249.663 176.13 252.958 180.523 262.88L211.294 331.34C211.608 332.236 211.833 333.042 211.953 333.771M70.8533 340.657H203.009C210.284 339.352 212.594 337.658 211.953 333.771M70.8533 340.657C70.3363 345.907 71.4155 348.439 77.9541 351.595M211.953 333.771H258.633C259.75 342.608 258.402 346.466 252.716 351.595" stroke="#212121" stroke-width="3" stroke-linecap="round" stroke-linejoin="round"/>
<path d="M90.8203 287.448C90.8203 288.801 89.7412 289.897 88.4101 289.897C87.0791 289.897 86 288.801 86 287.448C86 286.096 87.0791 285 88.4101 285C89.7412 285 90.8203 286.096 90.8203 287.448Z" fill="#DC1470"/>
<path d="M86.7611 309.227V292.345H90.3129V309.227H86.7611Z" fill="#DC1470"/>
<path d="M108.96 299.433V285.644H105.408V294.381C103.913 292.878 101.906 291.959 99.6998 291.959C95.076 291.959 91.3277 295.997 91.3277 300.979C91.3277 305.961 95.076 310 99.6998 310C101.906 310 103.913 309.081 105.408 307.578V309.227H108.96V302.397H105.408C103.393 305.992 101.781 306.487 98.4313 305.876V303.814H95.0064V302.139H98.4313V299.691H95.0064V297.887H98.4313V295.696C102.093 295.139 103.746 295.83 105.408 299.433H107.949L108.96 299.433Z" fill="#DC1470"/>
<path fill-rule="evenodd" clip-rule="evenodd" d="M127.683 302.526C127.799 301.943 127.86 301.34 127.86 300.722C127.86 295.74 123.885 291.701 118.981 291.701C114.508 291.701 110.807 295.061 110.191 299.433H108.96V302.397L110.254 302.397C111.027 306.578 114.64 309.742 118.981 309.742C121.973 309.742 124.619 308.239 126.227 305.936L123.04 303.952C120.593 307.551 115.924 307.243 114.161 302.526H127.683ZM114.034 299.433C116.004 294.128 121.602 294.364 123.674 299.433H114.034Z" fill="#DC1470"/>
<path fill-rule="evenodd" clip-rule="evenodd" d="M136.994 309.742C139.05 309.742 140.943 309.032 142.448 307.84V309.227H146V292.345H142.448V293.603C140.943 292.411 139.05 291.701 136.994 291.701C132.09 291.701 128.114 295.74 128.114 300.722C128.114 305.704 132.09 309.742 136.994 309.742ZM141.307 300.85C141.307 303.341 139.319 305.361 136.867 305.361C134.415 305.361 132.427 303.341 132.427 300.85C132.427 298.36 134.415 296.34 136.867 296.34C139.319 296.34 141.307 298.36 141.307 300.85Z" fill="#DC1470"/>
<path d="M32.1927 147.191V35.0339C33.8911 19.5948 37.1854 13.0672 53.4955 10.9141H117.404C133.046 11.5721 137.046 17.6525 138.707 35.0339V147.191C137.993 163.419 132.515 167.342 117.404 168.899H53.4955C38.9121 166.942 33.0622 163.421 32.1927 147.191Z" fill="white" stroke="#212121" stroke-width="3" stroke-linecap="round" stroke-linejoin="round"/>
<path d="M38.5047 145.287V40.0311C40.1024 25.5421 43.2015 19.4161 58.545 17.3955H118.666C133.381 18.0131 137.144 23.7193 138.707 40.0311V145.287C138.035 160.516 132.882 164.197 118.666 165.659H58.545C44.8259 163.822 39.3226 160.517 38.5047 145.287Z" fill="#DC1470"/>
<path d="M76.3761 97.1983C75.8355 101.862 75.2145 104.265 71.6422 106.921C73.1872 111.402 75.4931 112.979 80.7157 115.427C87.3852 118.359 89.9777 117.873 94.1285 116.238C98.638 114.697 100.339 113.26 102.018 109.756C98.6474 109.284 97.3147 108.732 96.4954 106.921C96.8928 102.741 97.0061 100.373 96.4954 95.9831C101.286 96.9786 103.844 96.7892 108.33 95.9831C119.012 93.8467 121.455 86.5462 124.505 71.2726C124.992 66.8952 125.225 63.3848 125.247 59.93C125.272 55.8437 125.001 51.8352 124.505 46.5621C113.669 52.3484 107.141 52.1539 96.101 44.1307C91.3592 42.0898 89.5929 41.7641 87.8165 46.5621C88.2689 62.2679 88.0358 69.4499 85.055 73.7031C79.8277 67.8772 77.8281 65.0794 76.3761 61.1453C74.4632 61.2103 73.2995 61.0358 71.6422 61.1453C69.6314 61.6343 68.7395 62.1976 67.3028 63.5759C66.9148 65.9947 66.8096 67.3377 67.3028 69.6522C69.1731 73.4965 71.3895 74.6522 76.3761 76.1337V97.1983Z" fill="white"/>
<path d="M101.624 66.0063C101.624 68.2436 100.741 70.0572 99.6515 70.0572C98.5621 70.0572 97.679 68.2436 97.679 66.0063C97.679 63.7691 98.5621 61.9554 99.6515 61.9554C100.741 61.9554 101.624 63.7691 101.624 66.0063Z" fill="#212121"/>
<path d="M120.56 69.2471C120.56 71.4843 119.677 73.298 118.587 73.298C117.498 73.298 116.615 71.4843 116.615 69.2471C116.615 67.0098 117.498 65.1962 118.587 65.1962C119.677 65.1962 120.56 67.0098 120.56 69.2471Z" fill="#212121"/>
<path d="M64.1469 48.9924C65.1202 56.5822 66.6127 59.0448 70.0643 61.9553C72.3015 61.6763 73.6432 61.627 76.3762 61.9553L76.4016 61.9847C80.0532 66.221 82.1073 68.6042 85.055 73.7031C87.3508 69.0738 87.7067 66.3895 87.8166 61.5504C87.5308 55.9138 87.5109 52.7287 87.8166 46.9671C88.255 43.0031 89.3344 42.2567 92.1561 42.511C111.486 53.0434 115.431 50.6128 124.899 46.1568C128.892 43.2367 130.611 41.4336 133.184 38.055C129.827 38.1163 127.968 38.0553 124.899 36.8397C128.322 34.3042 129.964 32.7475 132 29.5481C126.914 30.0359 124.068 30.1437 118.982 29.5481C111.662 25.9321 108.222 23.6963 103.202 19.4209C98.2721 18.2906 95.5083 17.7751 90.5781 19.4209C76.1295 21.8375 69.6871 25.4636 64.1469 40.0805C63.6423 43.4377 63.4503 45.3414 64.1469 48.9924Z" fill="#DC1470"/>
<path d="M71.6422 106.921C52.6792 108.875 42.4804 110.39 32.9817 121.504V147.429C34.4685 162.695 40.2858 165.875 53.4955 168.494H124.11C134.623 162.708 136.787 159.508 138.312 153.911L139.89 122.314C124.869 115.691 117.248 109.621 100.046 110.161C88.7032 121.047 82.5006 119.525 71.6422 106.921Z" fill="#212121"/>
<path d="M71.6422 106.921C75.2145 104.265 75.8355 101.862 76.3761 97.1983V76.1337C71.3895 74.6522 69.1731 73.4965 67.3028 69.6522C66.8096 67.3377 66.9148 65.9947 67.3028 63.5759C68.7395 62.1976 69.6314 61.6343 71.6422 61.1453C73.2995 61.0358 74.4632 61.2103 76.3761 61.1453C77.8281 65.0794 79.8277 67.8772 85.055 73.7031M71.6422 106.921C73.1872 111.402 75.4931 112.979 80.7157 115.427C87.3852 118.359 89.9777 117.873 94.1285 116.238C98.638 114.697 100.339 113.26 102.018 109.756C98.6474 109.284 97.3147 108.733 96.4954 106.921C96.8928 102.741 97.0061 100.373 96.4954 95.9831M71.6422 106.921C52.6792 108.875 42.4804 110.39 32.9817 121.504V147.429C34.4685 162.695 40.2858 165.875 53.4955 168.494H124.11C134.623 162.708 136.787 159.508 138.312 153.911L139.89 122.314C124.869 115.691 117.248 109.621 100.046 110.161C88.7032 121.047 82.5006 119.525 71.6422 106.921ZM96.4954 95.9831C101.286 96.9786 103.844 96.7892 108.33 95.9831C119.012 93.8467 121.455 86.5462 124.505 71.2726C124.992 66.8952 125.225 63.3848 125.247 59.93M96.4954 95.9831C89.839 93.4601 87.1737 91.0632 83.8717 85.4507M85.055 73.7031C88.0358 69.4499 88.2689 62.2679 87.8165 46.5621C89.5929 41.7641 91.3592 42.0898 96.101 44.1307C107.141 52.1539 113.669 52.3484 124.505 46.5621C125.001 51.8352 125.272 55.8437 125.247 59.93M85.055 73.7031C87.3508 69.0738 87.7067 66.3895 87.8166 61.5504C87.5308 55.9138 87.5109 52.7287 87.8166 46.9671C88.255 43.0031 89.3344 42.2567 92.1561 42.511C111.486 53.0433 115.431 50.6128 124.899 46.1568C128.892 43.2367 130.611 41.4336 133.184 38.055C129.827 38.1163 127.968 38.0553 124.899 36.8397C128.322 34.3042 129.964 32.7475 132 29.5481C126.914 30.0359 124.068 30.1437 118.982 29.5481C111.662 25.9321 108.222 23.6963 103.202 19.4209C98.2721 18.2906 95.5083 17.7751 90.5781 19.4209C76.1295 21.8375 69.6871 25.4636 64.1469 40.0805C63.6423 43.4377 63.4503 45.3414 64.1469 48.9924C65.1202 56.5822 66.6127 59.0448 70.0643 61.9553C72.3015 61.6763 73.6432 61.627 76.3762 61.9553L76.4016 61.9847C80.0532 66.221 82.1073 68.6042 85.055 73.7031ZM73.6148 66.4114C74.0277 68.2393 77.0379 70.9698 77.9542 70.8674M100.44 89.5016C88.2111 81.3998 90.1836 77.754 108.725 85.4507M125.247 59.93C110 60.5 110.5 65.1962 112 77M92.1561 57.4994C96.101 53.8536 103.596 53.0434 107.147 57.0943M38.5047 40.0311V145.287C39.3226 160.517 44.8259 163.822 58.545 165.659H118.666C132.882 164.197 138.035 160.516 138.707 145.287V40.0311C137.144 23.7193 133.381 18.0131 118.666 17.3955H58.545C43.2015 19.4161 40.1024 25.5421 38.5047 40.0311ZM32.1927 35.0339V147.191C33.0622 163.421 38.9121 166.942 53.4955 168.899H117.404C132.515 167.342 137.993 163.419 138.707 147.191V35.0339C137.046 17.6525 133.046 11.5721 117.404 10.9141H53.4955C37.1854 13.0672 33.8911 19.5948 32.1927 35.0339ZM101.624 66.0063C101.624 68.2436 100.741 70.0572 99.6515 70.0572C98.5621 70.0572 97.679 68.2436 97.679 66.0063C97.679 63.7691 98.5621 61.9554 99.6515 61.9554C100.741 61.9554 101.624 63.7691 101.624 66.0063ZM120.56 69.2471C120.56 71.4843 119.677 73.298 118.587 73.298C117.498 73.298 116.615 71.4843 116.615 69.2471C116.615 67.0098 117.498 65.1962 118.587 65.1962C119.677 65.1962 120.56 67.0098 120.56 69.2471Z" stroke="#212121" stroke-width="2" stroke-linecap="round" stroke-linejoin="round"/>
<path d="M222.339 332.961L223.07 320.403C223.22 315.807 223.101 311.145 222.339 304.605C220.599 298.486 219.135 293.719 218.186 289.616C209.708 289.751 192.752 289.94 192.752 289.616C192.752 289.292 189.596 282.46 188.018 279.084C211.238 234.165 222.795 216.873 237.725 216.7C231.499 263.384 314.651 247.892 327.67 223.181C339.118 227.096 348.889 242.19 367.119 272.197C371.797 280 368.715 281.894 359.229 283.54H317.807L323.33 292.047C317.26 297.445 315.544 301.684 318.991 313.922C325.318 327.965 329.36 335.931 337.927 350.38C306.102 350.947 288.066 350.972 255.477 350.38C259.057 344.368 259.518 340.44 259.027 332.961H222.339Z" fill="#EEEEEE"/>
<path d="M214.45 332.961C217.94 329.19 220.554 326.873 223.07 320.403L222.339 332.961M222.339 332.961C222.966 322.332 223.742 316.656 222.339 304.605C220.599 298.486 219.135 293.719 218.186 289.616M222.339 332.961H259.027C259.518 340.44 259.057 344.368 255.477 350.38C288.066 350.972 306.102 350.947 337.927 350.38C329.36 335.931 325.318 327.965 318.991 313.922C315.544 301.684 317.26 297.445 323.33 292.047L317.807 283.54H359.229C368.716 281.894 371.797 280 367.119 272.197C348.889 242.19 339.118 227.096 327.67 223.181C314.651 247.892 231.499 263.384 237.725 216.7C222.795 216.873 211.238 234.165 188.018 279.084C189.596 282.46 192.752 289.292 192.752 289.616C192.752 289.94 209.708 289.751 218.186 289.616M226.284 257.614C216.799 272.373 215.636 278.6 218.186 289.616" stroke="#212121" stroke-width="2" stroke-linecap="round" stroke-linejoin="round"/>
<path d="M195.514 297.313C194.05 293.226 194.09 291.663 195.514 290.021C208.341 288.31 210.327 289.786 218.789 290.021C222.759 303.546 223.781 311.603 221.945 318.782C220.73 325.066 218.781 328.333 213.266 333.771C207.493 319.41 203.967 311.39 195.514 297.313Z" stroke="#212121" stroke-width="2" stroke-linecap="round" stroke-linejoin="round"/>
<path d="M337.927 316.352C332.424 303.421 326.926 296.291 317.807 283.54C334.598 282.094 343.917 282.208 360.413 283.54C369.722 302.886 374.544 313.522 380.927 332.151C382.096 337.206 382.099 339.602 380.927 343.088C378.73 346.675 376.942 347.918 373.037 349.164C360.278 350.267 352.769 350.474 337.927 349.164C329.319 336.76 325.427 329.551 319.78 316.352H355.679" stroke="#212121" stroke-width="2" stroke-linecap="round" stroke-linejoin="round"/>
<path d="M203.01 251.538C193.943 242.846 193.14 237.089 207.349 223.586C202.524 204.092 209.505 198.249 232.202 193.205C238.674 190.636 239.715 187.665 240.723 181.862C235.554 176.874 232.865 173.685 228.652 166.874C223.269 154.823 225.304 149.031 232.202 139.328C261.285 103.63 322.147 108.136 328.854 150.265C328.284 157.372 327.214 161.364 323.33 168.494C317.481 182.039 318.553 187.686 326.092 195.23C336.433 205.124 342.677 210.248 354.101 219.131C361.828 226.654 363.423 231.439 363.174 240.6C362.85 248.364 361.051 251.154 356.862 255.184C340.884 230.478 332.605 221.978 319.385 219.131L296.11 218.32C289.371 217.437 286.864 215.582 286.168 208.193V195.23C281.882 198.067 276.49 200.028 268.89 202.117V204.952C267.729 213.039 265.879 216.175 258.239 216.7H238.514C224.877 216.808 217.054 227.307 203.01 251.538Z" fill="white"/>
<path d="M242.854 179.027L240.723 181.862M240.723 181.862C239.715 187.665 238.674 190.636 232.202 193.205C209.505 198.249 202.524 204.092 207.349 223.586C193.14 237.089 193.943 242.846 203.01 251.538C217.054 227.307 224.877 216.808 238.514 216.7H258.239C265.879 216.175 267.729 213.039 268.89 204.952V202.117M240.723 181.862C235.554 176.874 232.865 173.685 228.652 166.874C223.269 154.823 225.304 149.031 232.202 139.328C261.285 103.63 322.147 108.136 328.854 150.265C328.284 157.372 327.214 161.364 323.33 168.494C317.481 182.039 318.553 187.686 326.092 195.23C336.433 205.124 342.677 210.248 354.101 219.131C361.828 226.654 363.423 231.439 363.174 240.6C362.85 248.364 361.051 251.154 356.862 255.184C340.884 230.478 332.605 221.978 319.385 219.131L296.11 218.32C289.371 217.437 286.864 215.582 286.168 208.193V195.23M261.394 135.277C254.372 142.55 251.557 147.914 248.376 159.582C247.659 166.749 247.551 170.816 248.376 178.216C251.307 186.4 254.253 188.674 260.605 190.774C263.967 191.319 265.758 191.218 268.89 190.774C269.395 195.474 269.277 197.895 268.89 202.117M261.394 135.277C260.706 132.904 260.256 131.573 261.394 129.201M261.394 135.277C269.542 153.907 277.702 156.196 292.56 159.582C297.734 169.211 298.879 174.622 296.11 184.293C293.16 189.223 290.139 192.602 286.168 195.23M268.89 202.117C276.49 200.028 281.882 198.067 286.168 195.23M268.89 202.117C265.564 202.575 263.79 202.767 261 202.117" stroke="#212121" stroke-width="2" stroke-linecap="round" stroke-linejoin="round"/>
<path d="M204.193 249.512C200.417 237.639 204.024 233.29 213.661 226.827C211.345 212.355 217.244 206.87 233.78 199.281C242.304 194.342 245.351 190.869 246.798 183.077C224.879 157.788 229.602 147.103 249.56 130.416C257.291 124.842 261.541 121.96 268.89 117.453L304.789 120.693C319.771 128.623 324.621 135.209 328.459 149.86C327.561 160.418 325.877 165.666 321.358 174.165C318.289 181.763 317.658 185.979 323.725 193.205C357.233 219.286 373.152 233.666 357.257 255.588C345.205 233.371 337.122 224.581 318.991 219.13C310.186 218.426 305.141 218.174 295.716 218.32C289.521 216.522 286.987 214.821 286.248 209.003V195.23C286.412 185.043 288.489 182.719 295.716 184.698L292.165 159.582C276.977 156.546 269.673 152.433 261.395 135.682C253.278 143.03 250.801 148.833 248.376 160.797C247.86 166.886 247.962 170.362 248.376 176.596C250.485 186.012 253.643 189.209 262.578 191.179H268.89V204.952C268.107 211.437 266.849 214.477 260.211 216.7H237.725C229.785 216.683 225.887 219.95 219.183 227.232L204.193 249.512Z" fill="#DC1470"/>
<path d="M321.358 174.165C325.877 165.666 327.561 160.418 328.459 149.86C324.621 135.209 319.771 128.623 304.789 120.693L268.89 117.453C261.541 121.96 257.291 124.842 249.56 130.416C229.602 147.103 224.879 157.788 246.798 183.077C245.351 190.869 242.304 194.342 233.78 199.281C217.244 206.87 211.345 212.355 213.661 226.827C204.024 233.29 200.417 237.639 204.193 249.512L219.183 227.232C225.887 219.95 229.785 216.683 237.725 216.7H260.211C266.849 214.477 268.107 211.437 268.89 204.952V191.179H262.578C253.643 189.209 250.485 186.012 248.376 176.596C247.962 170.362 247.86 166.886 248.376 160.797C250.801 148.833 253.278 143.03 261.395 135.682M321.358 174.165C318.289 181.763 317.658 185.979 323.725 193.205C357.233 219.286 373.152 233.666 357.257 255.588C345.205 233.371 337.122 224.581 318.991 219.13C310.186 218.426 305.141 218.174 295.716 218.32C289.521 216.522 286.987 214.821 286.248 209.003V195.23C286.412 185.043 288.489 182.719 295.716 184.698L292.165 159.582M321.358 174.165L292.165 159.582M261.395 135.682C260.977 133.088 260.859 131.66 261 129.2M261.395 135.682C269.673 152.433 276.977 156.546 292.165 159.582" stroke="#212121" stroke-width="2" stroke-linecap="round" stroke-linejoin="round"/>
<path d="M300.299 135.011C295.421 124.838 291.189 119.735 268.101 116.907C281.91 112.889 289.381 114.626 302.655 118.516C307.212 123.691 309.03 127.214 310.508 135.011C311.778 142.976 311.871 147.392 310.508 155.126H301.87C302.772 147.588 302.775 143.255 300.299 135.011Z" fill="#212121" stroke="#212121" stroke-width="2" stroke-linecap="round" stroke-linejoin="round"/>
<ellipse cx="304" cy="170.52" rx="17.7523" ry="16.2036" fill="#212121"/>
<ellipse cx="255.477" cy="200.901" rx="7.88991" ry="6.07635" fill="#212121"/>
<path d="M261.779 202.384C265.22 202.978 266.911 202.787 269.651 201.847" stroke="#212121" stroke-width="2" stroke-linecap="round" stroke-linejoin="round"/>
<path d="M254.688 143.378C266.349 148.213 266.084 152.765 257.055 163.228M255.477 172.14C274.04 169.625 277.492 170.364 259.816 179.026" stroke="#212121" stroke-width="2" stroke-linecap="round" stroke-linejoin="round"/>
<ellipse cx="274.807" cy="158.367" rx="1.97248" ry="4.0509" fill="#212121"/>
<ellipse cx="255.082" cy="155.126" rx="1.97248" ry="4.0509" fill="#212121"/>
</svg>
